<svg width="354" height="57" viewBox="0 0 354 57" fill="none" xmlns="http://www.w3.org/2000/svg">
<path d="M11.3861 31.4851C10.4982 31.7758 9.7645 32.2664 9.18481 32.9572C8.60506 33.6476 8.25182 34.402 8.125 35.2197C7.99819 36.0374 8.10237 36.8462 8.43751 37.6457C8.77265 38.4455 9.40219 39.0905 10.3261 39.5814C10.5435 39.5814 10.6793 39.6722 10.7338 39.8539C10.788 40.0355 10.7064 40.1263 10.4893 40.1263C9.60147 39.9447 8.82248 39.5721 8.1522 39.009C6.90216 37.9728 6.21378 36.6374 6.08696 35.0016C6.0145 34.1839 6.09149 33.3934 6.31796 32.63C6.54439 31.8667 6.8569 31.1669 7.25545 30.5309C7.74456 29.8587 8.32428 29.2769 8.99459 28.7864C9.03081 28.7499 9.13499 28.6684 9.30707 28.5411C9.47918 28.4138 9.64673 28.2958 9.8098 28.1868C9.97286 28.0777 10.2174 27.905 10.5435 27.6687L9.53806 22.8164C8.65036 23.5616 7.77176 24.3838 6.9022 25.2833C6.03261 26.1829 5.24457 27.1327 4.53804 28.1321C3.83154 29.1318 3.26541 30.1903 2.83966 31.308C2.41396 32.4257 2.2011 33.6022 2.2011 34.8382C2.2011 35.9831 2.44112 37.0598 2.92121 38.0685C3.40127 39.0771 4.03987 39.954 4.83696 40.6988C5.63406 41.4439 6.55344 42.0301 7.59511 42.4573C8.63679 42.8843 9.69204 43.0979 10.7609 43.0979C10.7972 43.0979 10.9646 43.0797 11.2636 43.0432C11.5627 43.0071 11.8795 42.9617 12.2146 42.907C12.5499 42.8526 12.8579 42.7934 13.1387 42.7298C13.4193 42.6661 13.5599 42.598 13.5599 42.5254L13.3966 41.7621C12.6902 38.182 12.0198 34.7563 11.3861 31.4851ZM12.337 31.3761L14.5653 42.1983C15.8516 41.7074 16.7209 40.867 17.174 39.6767C17.627 38.4864 17.7309 37.2779 17.4864 36.0512C17.2418 34.8244 16.6668 33.7384 15.7608 32.7934C14.8551 31.8484 13.7138 31.3761 12.337 31.3761ZM9.48371 16.7921C10.0452 16.5011 10.5661 16.0653 11.0462 15.4835C11.5263 14.9022 11.9701 14.2795 12.3778 13.6162C12.7852 12.953 13.1387 12.276 13.4374 11.5852C13.7365 10.8948 13.9765 10.268 14.1576 9.70451C14.3568 9.10491 14.4926 8.43237 14.5653 7.68724C14.6377 6.94212 14.52 6.31533 14.2121 5.8062C13.9947 5.3521 13.7094 5.08859 13.3562 5.01566C13.0026 4.94308 12.6494 4.97025 12.2962 5.09754C11.943 5.22482 11.6079 5.42916 11.2907 5.71091C10.9739 5.99265 10.7427 6.2424 10.598 6.4605C10.1992 7.16916 9.85043 7.9597 9.55164 8.83211C9.25271 9.70451 9.04891 10.6086 8.94024 11.5446C8.83153 12.4803 8.81795 13.3799 8.89947 14.2434C8.98098 15.1065 9.17573 15.9562 9.48371 16.7921ZM8.66851 17.637C8.36052 16.4378 8.08879 15.261 7.85327 14.1068C7.61775 12.953 7.50002 11.7672 7.50002 10.5494C7.50002 9.65911 7.56343 8.68212 7.69024 7.61913C7.81702 6.55614 8.04802 5.51998 8.38316 4.51134C8.7183 3.50271 9.18025 2.59865 9.76902 1.79917C10.358 0.999348 11.1412 0.417972 12.1196 0.0543535C12.2101 0.0182325 12.3006 0 12.3912 0C12.5181 0 12.6676 0.0725861 12.8397 0.218102C13.0119 0.363274 13.1929 0.576904 13.3833 0.858648C13.5732 1.14039 13.7409 1.43108 13.886 1.73106C14.0307 2.03069 14.1394 2.23538 14.2121 2.34443C14.7011 3.27119 15.0588 4.25712 15.2855 5.30188C15.5118 6.34698 15.6431 7.38727 15.6795 8.42308C15.7518 9.98626 15.6658 11.5309 15.4213 13.0576C15.1768 14.5839 14.6829 16.0742 13.9402 17.528C13.6867 17.9642 13.4285 18.4049 13.1658 18.85C12.9032 19.2955 12.5907 19.7269 12.2283 20.1449C12.1559 20.2178 12.0246 20.3496 11.8343 20.5401C11.6439 20.7311 11.4492 20.9265 11.2499 21.1263C11.0507 21.3262 10.8741 21.5126 10.7201 21.685C10.5661 21.8577 10.4893 21.9623 10.4893 21.9987L11.6031 27.4506C11.6103 27.4864 12.1604 27.4506 12.1604 27.4506C13.2234 27.464 14.3489 27.6367 15.3263 28.023C16.2683 28.4592 17.079 29.0588 17.7583 29.8222C18.4376 30.5856 18.9808 31.4442 19.3886 32.3981C19.7963 33.3524 20 34.3201 20 35.3016C20 36.2827 19.8549 37.2824 19.5652 38.3C18.8224 40.2264 17.6359 41.653 16.0056 42.5798C15.8242 42.6889 15.566 42.8117 15.2309 42.9479C14.8959 43.0841 14.7646 43.2978 14.8369 43.5884C15.2717 45.5686 15.566 46.9308 15.7203 47.6773C15.8743 48.4238 15.9874 49.3871 16.0598 50.567C16.1321 51.6954 15.9374 52.7102 15.4754 53.6184C15.0135 54.53 14.3932 55.2696 13.614 55.8407C12.8353 56.4152 12.124 56.7489 11.481 56.8521C10.8377 56.9518 10.3984 57 10.1632 57C9.34784 57 8.55075 56.8452 7.77176 56.5356C6.8116 56.1744 6.00545 55.6205 5.35327 54.874C4.7011 54.1275 4.37501 53.2193 4.37501 52.1495C4.37501 51.4752 4.56976 50.7837 4.95925 50.0751C5.34875 49.3664 5.86053 48.8573 6.49456 48.5511C7.20109 48.1865 7.83969 48.0867 8.41035 48.2484C8.98098 48.4135 9.45199 48.7231 9.82338 49.1772C10.1947 49.6313 10.453 50.1817 10.598 50.825C10.7427 51.4718 10.7338 52.0738 10.5706 52.638C10.4077 53.2021 10.0771 53.6803 9.57884 54.069C9.08063 54.4612 8.38768 54.6367 7.50002 54.6023C7.86232 55.2559 8.36958 55.6687 9.02175 55.8407C9.67393 56.0161 10.3442 56.0265 11.0325 55.882C11.7211 55.7375 12.3685 55.4692 12.9755 55.077C13.5825 54.6883 14.0581 54.2651 14.4021 53.811C14.6195 53.4842 14.7827 53.0577 14.8914 52.5313C15.0001 52.0015 15.0636 51.4546 15.0814 50.8801C15.0996 50.309 15.0814 49.8618 15.0272 49.5453C14.9727 49.2254 14.8822 48.73 14.7553 48.0592C14.2121 45.861 13.8678 44.4781 13.7227 43.9139C13.6504 43.734 13.4556 43.6748 13.1387 43.7384C12.8215 43.8021 12.5544 43.8612 12.337 43.9139C10.7791 44.1168 9.47465 44.024 8.42393 43.6431C6.79349 43.2069 5.3578 42.4298 4.11686 41.3121C2.87591 40.1948 1.87954 38.8408 1.12771 37.2504C0.375915 35.6604 0 34.4519 0 33.6249C0 32.7982 0 32.2757 0 32.0576C0 30.5856 0.253628 29.2044 0.760883 27.914C1.72101 25.8967 2.8578 24.0432 4.17121 22.3531C5.48461 20.6629 6.98371 19.0908 8.66851 17.637Z" fill="white"/>
<g filter="url(#filter0_d_377_74)">
<path d="M52.0764 41.3737C51.438 41.3737 50.9061 41.1406 50.4805 40.6744C50.0762 40.2082 49.9166 39.3288 50.0017 38.0361C50.0868 36.701 50.5018 34.9845 51.2465 32.8866C51.9913 30.7887 52.9595 28.3199 54.1511 25.4802C54.5341 24.569 54.9172 23.5518 55.3002 22.4287C55.7045 21.3056 56.045 20.1824 56.3216 19.0593C56.5982 17.915 56.7365 16.8872 56.7365 15.9759C56.7365 15.3402 56.6514 14.7892 56.4812 14.323C56.3322 13.8356 56.0556 13.4754 55.6513 13.2423C55.1832 12.9456 54.6831 12.7337 54.1511 12.6065C53.6191 12.4794 53.0553 12.4158 52.4594 12.4158C51.1189 12.4158 49.7038 12.7231 48.2143 13.3376C46.746 13.9522 45.3203 14.7998 43.9372 15.8806C42.5753 16.9401 41.3518 18.1481 40.2666 19.5043C39.2026 20.8605 38.394 22.2698 37.8407 23.732C37.5216 24.6008 37.2875 25.4167 37.1385 26.1796C36.9896 26.9424 36.9151 27.6312 36.9151 28.2457C36.9151 29.4112 37.1279 30.386 37.5535 31.1701C38.0003 31.933 38.5749 32.5052 39.2771 32.8866C40.0006 33.2468 40.7773 33.427 41.6071 33.427C42.3945 33.427 43.1392 33.2892 43.8414 33.0137C44.7564 32.6747 45.5757 32.1025 46.2992 31.2972C47.0226 30.492 47.5972 29.6019 48.0228 28.6271C48.4483 27.6312 48.6611 26.7199 48.6611 25.8935C48.6611 25.173 48.4696 24.569 48.0866 24.0816C47.7249 23.5942 47.1184 23.3505 46.2672 23.3505C46.1396 23.3505 46.0119 23.3505 45.8842 23.3505C45.7778 23.3505 45.6502 23.3717 45.5012 23.4141C45.4161 23.4353 45.3416 23.4459 45.2778 23.4459C45.2139 23.4459 45.1607 23.4459 45.1182 23.4459C44.9267 23.4459 44.8309 23.4035 44.8309 23.3187C44.8309 23.1916 45.0331 23.0538 45.4374 22.9055C46.097 22.6936 46.7141 22.5876 47.2886 22.5876C48.2887 22.5876 49.0335 22.8843 49.5229 23.4777C50.0124 24.0498 50.2571 24.7809 50.2571 25.671C50.2571 26.561 50.0124 27.5252 49.5229 28.5636C49.0335 29.5808 48.31 30.5556 47.3525 31.488C46.4162 32.4204 45.2352 33.1833 43.8095 33.7766C43.0435 34.0945 42.2561 34.2534 41.4475 34.2534C40.341 34.2534 39.2984 33.9674 38.3195 33.3952C37.3407 32.823 36.5427 32.0072 35.9256 30.9476C35.3085 29.888 35 28.6377 35 27.1967C35 26.4974 35.0851 25.7663 35.2553 25.0034C35.4256 24.2406 35.6916 23.4353 36.0533 22.5876C36.7555 20.9559 37.7131 19.4725 38.926 18.1375C40.1389 16.7812 41.4901 15.6157 42.9796 14.6409C44.4904 13.6449 46.0332 12.882 47.6078 12.3522C49.1825 11.8225 50.6826 11.5576 52.1083 11.5576C53.3638 11.5576 54.5022 11.7801 55.5236 12.2251C56.6514 12.7125 57.4387 13.4118 57.8856 14.323C58.3537 15.2131 58.5878 16.2196 58.5878 17.3428C58.5878 18.5719 58.375 19.8857 57.9494 21.2844C57.5451 22.6618 57.0451 24.018 56.4493 25.3531C55.7896 26.8577 55.1406 28.4258 54.5022 30.0576C53.8639 31.6893 53.3106 33.2363 52.8425 34.6985C52.3743 36.1607 52.0445 37.3792 51.853 38.354C51.8104 38.5871 51.7785 38.7884 51.7572 38.9579C51.736 39.1486 51.7253 39.3076 51.7253 39.4347C51.7253 40.1764 51.97 40.5472 52.4594 40.5472C52.7573 40.5472 53.1084 40.4201 53.5128 40.1658C54.3001 39.6996 55.098 39.0003 55.9066 38.0679C56.7152 37.1355 57.5132 36.0759 58.3005 34.8892C59.1091 33.6813 59.8858 32.4522 60.6306 31.2019C61.3753 29.9304 62.0882 28.7331 62.7691 27.61C63.4501 26.4868 64.0671 25.5332 64.6204 24.7491C64.9609 24.2829 65.28 23.9439 65.578 23.732C65.8759 23.4989 66.1312 23.3823 66.344 23.3823C66.7909 23.3823 67.0143 23.7214 67.0143 24.3995C67.0143 24.8021 66.9185 25.2895 66.727 25.8617C66.4504 26.667 66.078 27.5888 65.6099 28.6271C65.1417 29.6443 64.7055 30.6827 64.3012 31.7423C63.8969 32.7806 63.6309 33.7554 63.5033 34.6667C63.482 34.8998 63.4607 35.1117 63.4394 35.3024C63.4394 35.4719 63.4394 35.6521 63.4394 35.8428C63.4394 36.9447 63.6628 37.7288 64.1097 38.195C64.5566 38.6824 65.1417 38.9261 65.8652 38.9261C66.6951 38.9261 67.6314 38.6612 68.6741 38.1314C69.738 37.6017 70.802 36.9023 71.8659 36.0335C72.9299 35.1435 73.8874 34.1687 74.7386 33.1091C75.611 32.0495 76.2707 30.99 76.7175 29.9304C77.2069 28.7649 77.5793 27.6312 77.8347 26.5292C78.09 25.4273 78.2177 24.4207 78.2177 23.5094C78.2177 22.0472 77.8985 20.8605 77.2601 19.9493C76.6218 19.0169 75.6217 18.5507 74.2598 18.5507C74.1534 18.5507 74.0364 18.5613 73.9087 18.5825C73.781 18.5825 73.6427 18.5931 73.4938 18.6143C72.9831 18.7414 72.6107 18.805 72.3766 18.805C72.1 18.805 71.9617 18.7414 71.9617 18.6143C71.9617 18.4447 72.1744 18.254 72.6 18.0421C73.0256 17.8302 73.4725 17.7666 73.9406 17.8514C74.962 17.7666 75.9196 17.9997 76.8133 18.5507C77.7283 19.0805 78.4624 19.8857 79.0157 20.9665C79.5689 22.0261 79.8455 23.3187 79.8455 24.8445C79.8455 25.6286 79.7604 26.4762 79.5902 27.3875C79.42 28.2987 79.1327 29.2523 78.7284 30.2483C78.1964 31.5833 77.4517 32.823 76.4941 33.9674C75.5365 35.1117 74.4619 36.1183 73.2703 36.9871C72.1 37.856 70.8977 38.5235 69.6635 38.9897C68.4506 39.4771 67.3122 39.7208 66.2482 39.7208C65.0353 39.7208 64.0139 39.3393 63.1841 38.5765C62.3755 37.8348 61.9712 36.6269 61.9712 34.9528C61.9712 34.2534 62.035 33.5435 62.1627 32.823C62.2903 32.1025 62.4393 31.4668 62.6095 30.9158C62.2478 31.5092 61.769 32.2509 61.1732 33.1409C60.5774 34.0097 59.8965 34.921 59.1304 35.8746C58.3856 36.8282 57.609 37.7182 56.8004 38.5447C55.9918 39.3923 55.1832 40.0704 54.3745 40.579C53.5659 41.1088 52.7999 41.3737 52.0764 41.3737Z" fill="white"/>
<path d="M81.9709 37.4003C81.1623 37.4003 80.5664 37.1355 80.1834 36.6057C79.8004 36.0547 79.6089 35.3872 79.6089 34.6031C79.6089 33.6495 79.8323 32.6535 80.2792 31.6151C80.7048 30.6403 81.2474 29.7503 81.907 28.945C82.5667 28.1397 83.2795 27.4934 84.0456 27.006C84.8116 26.4974 85.5564 26.2431 86.2799 26.2431C87.0885 26.2431 87.6843 26.508 88.0673 27.0378C88.4503 27.5676 88.6418 28.2351 88.6418 29.0404C88.6418 30.0152 88.4184 31.0112 87.9716 32.0283C87.7162 32.6005 87.3545 33.2363 86.8863 33.9356C86.4182 34.6137 85.8862 35.2388 85.2904 35.811C85.4181 36.0441 85.5989 36.2454 85.833 36.415C86.0671 36.5633 86.3863 36.6375 86.7906 36.6375C87.3013 36.6375 87.78 36.4255 88.2269 36.0017C88.695 35.5779 89.1206 35.0693 89.5036 34.4759C89.8867 33.8614 90.2271 33.2469 90.525 32.6323C90.8229 32.0178 91.0676 31.5198 91.2592 31.1383C91.323 31.0112 91.4294 30.9476 91.5783 30.9476C91.6635 30.9476 91.7273 30.99 91.7699 31.0747C91.8124 31.1383 91.8018 31.2443 91.7379 31.3926C91.6103 31.7105 91.3975 32.1873 91.0996 32.823C90.8017 33.4376 90.4399 34.0839 90.0143 34.762C89.5888 35.419 89.0993 35.9805 88.5461 36.4467C87.9928 36.9129 87.3757 37.1461 86.6948 37.1461C86.2267 37.1461 85.8224 37.0719 85.4819 36.9235C85.1414 36.754 84.8648 36.5527 84.652 36.3196C84.2052 36.6586 83.7583 36.9235 83.3114 37.1143C82.8646 37.305 82.4177 37.4003 81.9709 37.4003ZM82.4496 36.701C83.0242 36.701 83.6413 36.4255 84.3009 35.8746C84.1307 35.6203 84.003 35.3554 83.9179 35.0799C83.8328 34.8044 83.7902 34.5501 83.7902 34.317C83.7902 33.9356 83.8753 33.6071 84.0456 33.3316C84.2371 33.0561 84.5243 32.9184 84.9074 32.9184C85.184 32.9184 85.4074 33.0243 85.5777 33.2363C85.7692 33.427 85.8649 33.6495 85.8649 33.9038C85.8649 33.9674 85.8543 34.0309 85.833 34.0945C85.833 34.1369 85.8224 34.1899 85.8011 34.2534C86.1628 33.766 86.5033 33.1939 86.8225 32.5369C87.5247 31.0324 87.8758 29.7927 87.8758 28.8179C87.8758 28.3305 87.78 27.949 87.5885 27.6735C87.397 27.3981 87.1098 27.2603 86.7267 27.2603C86.2799 27.2603 85.7905 27.451 85.2585 27.8325C84.7478 28.2139 84.2477 28.7225 83.7583 29.3582C83.2902 29.994 82.8752 30.7039 82.5135 31.488C82.173 32.2085 81.8964 32.9078 81.6836 33.5859C81.4921 34.2428 81.3963 34.815 81.3963 35.3024C81.3963 35.7262 81.4814 36.0653 81.6517 36.3196C81.8219 36.5739 82.0879 36.701 82.4496 36.701Z" fill="white"/>
<path d="M94.9285 37.4321C94.5242 37.4321 94.1199 37.2732 93.7156 36.9553C93.3113 36.6163 93.1092 36.0759 93.1092 35.3342C93.1092 34.762 93.2475 34.1051 93.5241 33.3634C93.7795 32.6429 94.1199 31.9436 94.5455 31.2655C94.9924 30.5873 95.3116 30.0364 95.5031 29.6125C95.5669 29.443 95.5988 29.2947 95.5988 29.1675C95.5988 28.7861 95.3541 28.5106 94.8647 28.3411C94.3966 28.1715 93.7795 28.0762 93.0134 28.055L92.6304 29.104C92.3963 29.7821 92.0665 30.5767 91.6409 31.488C91.2366 32.3992 90.7791 33.2786 90.2684 34.1263C89.779 34.9739 89.2683 35.6521 88.7363 36.1607C88.6938 36.203 88.6406 36.2242 88.5768 36.2242C88.4916 36.2242 88.4384 36.1712 88.4172 36.0653C88.3746 35.9593 88.4172 35.8322 88.5448 35.6839C89.3747 34.5819 90.1195 33.3634 90.7791 32.0283C91.4388 30.6721 91.992 29.2947 92.4389 27.896C92.907 26.4974 93.2475 25.2048 93.4603 24.018C93.5241 23.679 93.6412 23.4353 93.8114 23.2869C93.9816 23.1174 94.1625 23.0326 94.354 23.0326C94.6306 23.0326 94.886 23.1704 95.1201 23.4459C95.3541 23.7002 95.4712 24.071 95.4712 24.5584C95.4712 24.6432 95.4605 24.7385 95.4392 24.8445C95.4392 24.9505 95.4286 25.0564 95.4073 25.1624C95.3222 25.6074 95.0669 26.0312 94.6413 26.4338C94.237 26.8153 93.9072 27.1014 93.6518 27.2921C93.8646 27.3133 94.088 27.3345 94.3221 27.3557C94.5562 27.3557 94.8115 27.3557 95.0881 27.3557C96.0883 27.3557 97.0777 27.2921 98.0566 27.1649C98.0991 27.2921 98.1204 27.3875 98.1204 27.451C98.1204 27.7265 98.0353 28.0762 97.8651 28.5C97.7161 28.9238 97.5565 29.3053 97.3863 29.6443C97.3012 29.8351 97.1309 30.1847 96.8756 30.6933C96.6202 31.1807 96.3436 31.7423 96.0457 32.378C95.7478 32.9926 95.4924 33.6071 95.2796 34.2217C95.0881 34.815 94.9924 35.3236 94.9924 35.7474C94.9924 36.2984 95.2052 36.5739 95.6307 36.5739C95.9499 36.5739 96.301 36.3726 96.6841 35.9699C97.0671 35.5461 97.4395 35.0375 97.8012 34.4442C98.1842 33.8296 98.5247 33.2363 98.8226 32.6641C99.1418 32.0707 99.3865 31.6045 99.5567 31.2655C99.6418 31.0536 99.7589 30.9476 99.9078 30.9476C99.993 30.9476 100.036 31.0218 100.036 31.1701C100.036 31.2549 100.004 31.382 99.9398 31.5515C99.7057 32.0389 99.4291 32.5899 99.1099 33.2045C98.7907 33.819 98.4289 34.423 98.0246 35.0163C97.6416 35.6097 97.216 36.1289 96.7479 36.5739C96.301 36.9977 95.8116 37.2732 95.2796 37.4003C95.2158 37.4215 95.0988 37.4321 94.9285 37.4321Z" fill="white"/>
<path d="M101.049 37.4957C100.155 37.4957 99.5485 37.2626 99.2293 36.7964C98.9101 36.309 98.7505 35.7368 98.7505 35.0799C98.7505 34.4018 98.8463 33.7025 99.0378 32.982C99.2293 32.2615 99.3996 31.6575 99.5485 31.1701C99.889 29.9834 100.315 28.7225 100.825 27.3875C101.357 26.0312 101.932 24.7068 102.549 23.4141C103.187 22.1002 103.815 20.9241 104.432 19.8857C104.921 19.0593 105.443 18.4447 105.996 18.0421C106.571 17.6183 107.071 17.4064 107.496 17.4064C107.837 17.4064 108.103 17.5335 108.294 17.7878C108.507 18.0209 108.613 18.3812 108.613 18.8686C108.613 19.2076 108.55 19.6103 108.422 20.0765C108.315 20.5427 108.124 21.0725 107.847 21.6658C107.103 23.3187 106.209 24.9717 105.166 26.6246C104.145 28.2775 102.847 29.8245 101.272 31.2655C101.187 31.541 101.07 31.8694 100.921 32.2509C100.793 32.6111 100.676 32.982 100.57 33.3634C100.442 33.9356 100.378 34.423 100.378 34.8256C100.378 35.4825 100.506 35.9805 100.761 36.3196C101.038 36.6375 101.368 36.7964 101.751 36.7964C102.091 36.7964 102.453 36.6798 102.836 36.4467C103.219 36.1924 103.581 35.8322 103.921 35.366C104.432 34.6243 104.89 33.872 105.294 33.1091C105.719 32.325 106.039 31.7211 106.251 31.2972C106.379 31.0641 106.517 30.9476 106.666 30.9476C106.773 30.9476 106.826 31.0112 106.826 31.1383C106.826 31.2443 106.794 31.3608 106.73 31.488C106.539 31.9118 106.283 32.4628 105.964 33.1409C105.666 33.7978 105.283 34.4653 104.815 35.1435C104.368 35.8004 103.826 36.362 103.187 36.8282C102.57 37.2732 101.857 37.4957 101.049 37.4957ZM101.527 30.2483C102.293 29.4642 103.038 28.5636 103.762 27.5464C104.485 26.508 105.156 25.4379 105.773 24.3359C106.411 23.2128 106.943 22.1532 107.369 21.1572C107.517 20.8393 107.635 20.4897 107.72 20.1082C107.826 19.7268 107.879 19.4089 107.879 19.1546C107.879 18.858 107.805 18.7096 107.656 18.7096C107.571 18.7096 107.443 18.7944 107.273 18.9639C107.103 19.1123 106.879 19.3771 106.603 19.7586C106.198 20.2884 105.751 21.0089 105.262 21.9201C104.794 22.8313 104.315 23.8061 103.826 24.8445C103.336 25.8829 102.889 26.8895 102.485 27.8643C102.081 28.8179 101.762 29.6125 101.527 30.2483Z" fill="white"/>
<path d="M113.302 37.4003C112.727 37.4003 112.249 37.1143 111.866 36.5421C111.759 36.3726 111.663 36.1501 111.578 35.8746C111.493 35.5991 111.451 35.2918 111.451 34.9528C111.451 34.762 111.461 34.5713 111.483 34.3806C111.504 34.1687 111.546 33.9568 111.61 33.7448C111.312 34.2111 110.961 34.7302 110.557 35.3024C110.174 35.8534 109.727 36.3408 109.216 36.7646C108.727 37.1672 108.174 37.3686 107.557 37.3686C107.344 37.3686 107.12 37.3368 106.886 37.2732C106.312 37.1037 105.897 36.807 105.641 36.3832C105.407 35.9593 105.29 35.4507 105.29 34.8574C105.29 34.2005 105.418 33.48 105.673 32.6959C105.95 31.9118 106.29 31.1489 106.695 30.4072C107.12 29.6655 107.557 29.0298 108.003 28.5C108.642 27.7583 109.376 27.1649 110.206 26.7199C111.036 26.2749 111.876 26.0524 112.727 26.0524C113.493 26.0524 114.217 26.2537 114.898 26.6564C115.217 26.063 115.557 25.4061 115.919 24.6856C116.281 23.9439 116.643 23.2128 117.004 22.4923C117.366 21.7718 117.685 21.1148 117.962 20.5215C118.239 19.9069 118.451 19.4407 118.6 19.1229C118.92 18.3812 119.217 17.915 119.494 17.7242C119.792 17.5123 120.143 17.4064 120.547 17.4064C120.781 17.4064 121.037 17.4381 121.313 17.5017C121.611 17.5441 121.899 17.5547 122.175 17.5335C122.048 17.6607 121.782 18.0315 121.377 18.646C120.994 19.2394 120.537 20.0023 120.005 20.9347C119.473 21.8671 118.898 22.8949 118.281 24.018C117.685 25.12 117.09 26.2431 116.494 27.3875C115.919 28.5106 115.377 29.5808 114.866 30.5979C114.376 31.5939 113.983 32.4522 113.685 33.1727C113.6 33.3422 113.472 33.6919 113.302 34.2217C113.153 34.7302 113.078 35.1753 113.078 35.5567C113.078 35.8322 113.142 36.0759 113.27 36.2878C113.398 36.4785 113.61 36.5739 113.908 36.5739C114.313 36.5739 114.717 36.3726 115.121 35.9699C115.547 35.5461 115.951 35.0375 116.334 34.4442C116.717 33.8296 117.058 33.2363 117.356 32.6641C117.653 32.0707 117.877 31.6045 118.026 31.2655C118.132 31.0324 118.26 30.9158 118.409 30.9158C118.537 30.9158 118.6 31.0112 118.6 31.2019C118.6 31.2231 118.6 31.2655 118.6 31.329C118.6 31.3714 118.579 31.4244 118.537 31.488C118.345 31.933 118.079 32.484 117.739 33.1409C117.419 33.7978 117.036 34.4548 116.59 35.1117C116.143 35.7686 115.643 36.3196 115.089 36.7646C114.536 37.1884 113.94 37.4003 113.302 37.4003ZM107.78 36.4467C108.078 36.4467 108.45 36.2878 108.897 35.9699C109.344 35.6309 109.823 35.1011 110.333 34.3806C110.929 33.5329 111.61 32.4734 112.376 31.2019C113.142 29.9304 113.898 28.5848 114.642 27.1649C114.366 26.9107 114.047 26.7835 113.685 26.7835C113.089 26.7835 112.419 27.059 111.674 27.61C110.951 28.1609 110.238 28.8603 109.536 29.7079C108.855 30.5556 108.28 31.4138 107.812 32.2826C107.493 32.876 107.259 33.4164 107.11 33.9038C106.982 34.3912 106.918 34.815 106.918 35.1753C106.918 36.0229 107.205 36.4467 107.78 36.4467Z" fill="white"/>
<path d="M134.94 39.1804C132.727 39.1804 130.897 38.8837 129.45 38.2904C128.024 37.697 126.96 36.9129 126.258 35.9381C125.577 34.9422 125.236 33.8826 125.236 32.7595C125.236 31.6787 125.545 30.5979 126.162 29.5172C126.779 28.4364 127.673 27.4616 128.843 26.5928C130.014 25.7027 131.439 25.014 133.12 24.5266C133.546 24.3995 134.057 24.2829 134.652 24.177C135.27 24.071 135.833 24.0074 136.344 23.9863C135.748 23.7743 135.142 23.4777 134.525 23.0962C133.908 22.7148 133.397 22.2592 132.993 21.7294C132.61 21.1996 132.439 20.6274 132.482 20.0129C132.567 19.0381 132.908 18.1481 133.503 17.3428C134.12 16.5163 134.908 15.7746 135.865 15.1177C136.823 14.4608 137.876 13.9098 139.025 13.4648C140.174 13.0198 141.334 12.6807 142.504 12.4476C143.696 12.1933 144.813 12.0662 145.856 12.0662C146.09 12.0662 146.313 12.0767 146.526 12.0979C146.739 12.0979 146.941 12.1085 147.133 12.1297C148.856 12.3204 150.112 12.7337 150.899 13.3694C151.686 13.984 152.08 14.6833 152.08 15.4674C152.08 16.3786 151.58 17.2792 150.58 18.1692C149.601 19.0593 148.239 19.695 146.494 20.0765C146.154 20.14 145.888 20.1718 145.696 20.1718C145.377 20.1718 145.217 20.1082 145.217 19.9811C145.217 19.9175 145.313 19.8222 145.505 19.695C145.717 19.5679 146.005 19.4937 146.367 19.4725C147.005 19.4089 147.611 19.1546 148.186 18.7096C148.782 18.2646 149.26 17.7348 149.622 17.1203C150.005 16.4845 150.197 15.8806 150.197 15.3084C150.197 14.7151 149.952 14.1959 149.463 13.7509C148.994 13.2847 148.175 12.9986 147.005 12.8926C146.835 12.8714 146.654 12.8608 146.462 12.8608C146.292 12.8396 146.111 12.829 145.92 12.829C144.643 12.829 143.356 13.0092 142.058 13.3694C140.759 13.7297 139.568 14.2383 138.483 14.8952C137.397 15.5521 136.525 16.3044 135.865 17.1521C135.206 17.9997 134.876 18.9215 134.876 19.9175C134.876 20.6168 135.046 21.1784 135.387 21.6022C135.748 22.0261 136.195 22.3545 136.727 22.5876C137.28 22.8207 137.855 23.0115 138.451 23.1598C139.047 23.3081 139.6 23.4459 140.11 23.573C140.642 23.7002 141.057 23.8591 141.355 24.0498C141.653 24.2405 141.76 24.516 141.674 24.8763C141.589 25.1094 141.398 25.2683 141.1 25.3531C140.802 25.4167 140.408 25.4485 139.919 25.4485C139.578 25.4485 139.195 25.4485 138.77 25.4485C138.366 25.4273 137.929 25.4167 137.461 25.4167C136.802 25.4167 136.11 25.4485 135.387 25.512C134.684 25.5544 133.961 25.6816 133.216 25.8935C132.088 26.2113 131.088 26.7517 130.216 27.5146C129.365 28.2563 128.694 29.1145 128.205 30.0893C127.737 31.043 127.503 32.0178 127.503 33.0137C127.503 33.9674 127.758 34.8574 128.269 35.6839C128.779 36.5103 129.588 37.1778 130.695 37.6864C131.801 38.195 133.259 38.4493 135.067 38.4493C136.727 38.4493 138.334 38.2374 139.887 37.8136C141.44 37.3897 142.877 36.8494 144.196 36.1924C145.515 35.5143 146.643 34.815 147.579 34.0945C148.345 33.48 148.963 32.8548 149.431 32.2191C149.92 31.5833 150.165 31.0324 150.165 30.5662C150.165 30.0576 149.878 29.7397 149.303 29.6125C148.835 29.4854 148.601 29.3582 148.601 29.2311C148.601 29.104 148.771 29.0404 149.112 29.0404C149.239 29.0404 149.377 29.051 149.526 29.0722C149.675 29.0934 149.824 29.1463 149.973 29.2311C150.931 29.6973 151.41 30.3542 151.41 31.2019C151.41 32.4098 150.548 33.6813 148.824 35.0163C147.782 35.8428 146.505 36.5739 144.994 37.2096C143.504 37.8242 141.887 38.301 140.142 38.64C138.419 39.0003 136.685 39.1804 134.94 39.1804Z" fill="white"/>
<path d="M149.441 37.6546C150.207 36.1077 150.942 34.5819 151.644 33.0773C152.367 31.5515 153.101 30.0999 153.846 28.7225C154.272 27.9596 154.623 27.4298 154.899 27.1332C155.197 26.8153 155.591 26.6564 156.08 26.6564C156.251 26.6564 156.432 26.6881 156.623 26.7517C156.815 26.7941 157.006 26.8153 157.198 26.8153C157.325 26.8153 157.421 26.8047 157.485 26.7835C157.187 26.953 156.804 27.3769 156.336 28.055C155.868 28.7119 155.389 29.4748 154.899 30.3436C154.41 31.2125 153.974 32.0284 153.591 32.7912C153.995 32.3038 154.41 31.8164 154.836 31.329C155.282 30.8416 155.772 30.3754 156.304 29.9304C156.815 29.4854 157.421 29.0298 158.123 28.5636C158.847 28.0762 159.549 27.6735 160.23 27.3557C160.911 27.0378 161.453 26.8789 161.858 26.8789C162.007 26.8789 162.113 26.8895 162.177 26.9107C162.177 26.9107 162.06 27.1226 161.826 27.5464C161.592 27.949 161.294 28.4894 160.932 29.1675C160.592 29.8245 160.241 30.5344 159.879 31.2972C159.517 32.0389 159.187 32.7595 158.889 33.4588C158.613 34.1369 158.432 34.7091 158.347 35.1753C158.283 35.4507 158.251 35.705 158.251 35.9381C158.251 36.2772 158.315 36.4997 158.442 36.6057C158.57 36.7116 158.708 36.7646 158.857 36.7646C159.262 36.7646 159.687 36.5527 160.134 36.1289C160.581 35.6839 161.007 35.1435 161.411 34.5077C161.836 33.872 162.209 33.2575 162.528 32.6641C162.868 32.0495 163.113 31.5833 163.262 31.2655C163.347 31.0959 163.411 31.0006 163.454 30.9794C163.496 30.937 163.56 30.9158 163.645 30.9158C163.773 30.9158 163.837 31.0006 163.837 31.1701C163.837 31.2761 163.805 31.3926 163.741 31.5198C163.486 32.0072 163.177 32.5899 162.815 33.268C162.475 33.9462 162.081 34.6137 161.634 35.2706C161.187 35.9064 160.698 36.4467 160.166 36.8918C159.634 37.3156 159.06 37.5275 158.442 37.5275C158.017 37.5275 157.57 37.3792 157.102 37.0825C156.655 36.7858 156.432 36.2348 156.432 35.4296C156.432 35.1964 156.453 34.9527 156.495 34.6985C156.538 34.423 156.612 34.1263 156.719 33.8084C156.889 33.3846 157.091 32.929 157.325 32.4416C157.559 31.9542 157.942 31.2867 158.474 30.439C158.623 30.2059 158.708 30.0258 158.73 29.8986C158.772 29.7715 158.794 29.6655 158.794 29.5808C158.794 29.3265 158.677 29.1993 158.442 29.1993C158.251 29.1993 157.964 29.3053 157.581 29.5172C157.219 29.7291 156.761 30.0999 156.208 30.6297C155.676 31.1383 155.038 31.8588 154.293 32.7912C153.57 33.7237 152.729 35.1011 151.771 36.9235C151.623 37.199 151.452 37.3474 151.261 37.3686C151.091 37.3897 150.846 37.4109 150.527 37.4321C150.314 37.4533 150.112 37.4639 149.92 37.4639C149.729 37.4851 149.569 37.5487 149.441 37.6546Z" fill="white"/>
<path d="M164.76 37.4003C164.164 37.4003 163.633 37.199 163.164 36.7964C162.696 36.3726 162.462 35.7156 162.462 34.8256C162.462 34.1263 162.59 33.268 162.845 32.2509C163.122 31.2125 163.452 30.1423 163.835 29.0404C164.239 27.9172 164.633 26.9001 165.016 25.9888H163.324C163.175 25.9888 163.101 25.8829 163.101 25.671C163.101 25.565 163.122 25.4696 163.164 25.3849C163.228 25.3001 163.313 25.2577 163.42 25.2577H165.335C165.697 24.4525 166.08 23.6684 166.484 22.9055C166.888 22.1426 167.282 21.4221 167.665 20.744C168.154 19.8963 168.676 19.2606 169.229 18.8368C169.782 18.4129 170.261 18.201 170.665 18.201C170.984 18.201 171.25 18.3282 171.463 18.5825C171.676 18.8156 171.782 19.1758 171.782 19.6632C171.782 19.9599 171.719 20.3731 171.591 20.9029C171.463 21.4115 171.261 21.9519 170.984 22.5241C170.835 22.8207 170.623 23.2446 170.346 23.7955C170.091 24.3465 169.835 24.8339 169.58 25.2577H171.112C171.261 25.2577 171.336 25.3637 171.336 25.5756C171.336 25.6604 171.314 25.7557 171.272 25.8617C171.229 25.9464 171.165 25.9888 171.08 25.9888H169.197C168.665 26.9001 168.059 27.7901 167.378 28.6589C166.697 29.5278 165.888 30.3966 164.952 31.2655C164.888 31.4562 164.803 31.7317 164.696 32.0919C164.611 32.4522 164.526 32.823 164.441 33.2045C164.377 33.5647 164.313 33.872 164.25 34.1263C164.207 34.3806 164.186 34.5077 164.186 34.5077C164.122 34.7832 164.09 35.0375 164.09 35.2706C164.09 35.7156 164.196 36.0441 164.409 36.256C164.622 36.4467 164.867 36.5421 165.143 36.5421C165.314 36.5421 165.484 36.5209 165.654 36.4785C165.824 36.415 166.016 36.309 166.229 36.1607C166.973 35.6309 167.622 34.9104 168.176 33.9991C168.75 33.0879 169.25 32.2085 169.676 31.3608C169.803 31.1065 169.931 30.9794 170.059 30.9794C170.144 30.9794 170.186 31.043 170.186 31.1701C170.186 31.2337 170.155 31.3502 170.091 31.5198C169.623 32.4946 169.229 33.2786 168.91 33.872C168.591 34.4654 168.282 34.9633 167.984 35.366C167.686 35.7474 167.335 36.1289 166.931 36.5103C166.633 36.807 166.292 37.0295 165.909 37.1778C165.526 37.3262 165.143 37.4003 164.76 37.4003ZM167.282 25.2577H168.91C169.208 24.7068 169.484 24.1664 169.74 23.6366C170.016 23.1068 170.261 22.577 170.474 22.0473C170.623 21.7082 170.75 21.3267 170.857 20.9029C170.963 20.4791 171.016 20.1506 171.016 19.9175C171.016 19.5997 170.942 19.4407 170.793 19.4407C170.687 19.4407 170.527 19.5361 170.314 19.7268C170.123 19.8963 169.878 20.193 169.58 20.6168C169.197 21.1466 168.814 21.8353 168.431 22.683C168.069 23.5094 167.686 24.3677 167.282 25.2577ZM165.207 30.2483C165.824 29.6125 166.399 28.9344 166.931 28.2139C167.484 27.4934 167.995 26.7517 168.463 25.9888H166.963C166.622 26.7729 166.303 27.5358 166.005 28.2775C165.707 29.0192 165.441 29.6761 165.207 30.2483Z" fill="white"/>
<path d="M171.884 37.5275C171.096 37.5275 170.383 37.2732 169.745 36.7646C169.128 36.256 168.819 35.4825 168.819 34.4442C168.819 33.4906 169.054 32.4734 169.522 31.3926C169.99 30.2907 170.586 29.3265 171.309 28.5C171.926 27.7795 172.618 27.1861 173.384 26.7199C174.15 26.2537 174.873 26.0206 175.554 26.0206C176.022 26.0206 176.427 26.1478 176.767 26.4021C177.129 26.6775 177.31 27.0696 177.31 27.5782C177.31 28.108 177.108 28.6907 176.703 29.3265C176.299 29.9622 175.725 30.5556 174.98 31.1065C174.661 31.3396 174.256 31.5621 173.767 31.7741C173.277 31.986 172.788 32.1661 172.299 32.3144C171.809 32.4416 171.405 32.5052 171.086 32.5052C170.979 32.7595 170.873 33.0985 170.766 33.5223C170.681 33.9462 170.639 34.3806 170.639 34.8256C170.639 35.3554 170.745 35.8322 170.958 36.256C171.171 36.6798 171.564 36.8918 172.139 36.8918C172.841 36.8918 173.48 36.6904 174.054 36.2878C174.629 35.8852 175.139 35.3872 175.586 34.7938C176.033 34.1793 176.405 33.5647 176.703 32.9502C177.023 32.3356 177.278 31.8164 177.469 31.3926C177.597 31.0959 177.767 30.9476 177.98 30.9476C178.086 30.9476 178.14 31.0006 178.14 31.1065C178.14 31.1913 178.108 31.2973 178.044 31.4244C177.746 32.0601 177.427 32.7383 177.086 33.4588C176.746 34.1581 176.342 34.8256 175.873 35.4613C175.405 36.0759 174.841 36.5739 174.182 36.9553C173.543 37.3368 172.777 37.5275 171.884 37.5275ZM171.309 31.933C171.607 31.933 172.107 31.827 172.809 31.6151C173.511 31.382 174.15 31.0218 174.724 30.5344C175.278 30.047 175.703 29.5172 176.001 28.945C176.299 28.3517 176.448 27.8537 176.448 27.451C176.448 26.9848 176.278 26.7517 175.937 26.7517C175.682 26.7517 175.331 26.9213 174.884 27.2603C174.437 27.5994 173.884 28.1715 173.224 28.9768C172.82 29.4854 172.437 30.0364 172.075 30.6297C171.713 31.2231 171.458 31.6575 171.309 31.933Z" fill="white"/>
<path d="M181.333 37.4321C180.929 37.4321 180.524 37.2732 180.12 36.9553C179.716 36.6163 179.514 36.0759 179.514 35.3342C179.514 34.762 179.652 34.1051 179.929 33.3634C180.184 32.6429 180.524 31.9436 180.95 31.2655C181.397 30.5873 181.716 30.0364 181.908 29.6125C181.971 29.443 182.003 29.2947 182.003 29.1675C182.003 28.7861 181.759 28.5106 181.269 28.3411C180.801 28.1715 180.184 28.0762 179.418 28.055L179.035 29.104C178.801 29.7821 178.471 30.5767 178.045 31.488C177.641 32.3992 177.184 33.2786 176.673 34.1263C176.183 34.9739 175.673 35.6521 175.141 36.1607C175.098 36.203 175.045 36.2242 174.981 36.2242C174.896 36.2242 174.843 36.1712 174.822 36.0653C174.779 35.9593 174.822 35.8322 174.949 35.6839C175.779 34.5819 176.524 33.3634 177.184 32.0283C177.843 30.6721 178.396 29.2947 178.843 27.896C179.312 26.4974 179.652 25.2048 179.865 24.018C179.929 23.679 180.046 23.4353 180.216 23.2869C180.386 23.1174 180.567 23.0326 180.758 23.0326C181.035 23.0326 181.29 23.1704 181.525 23.4459C181.759 23.7002 181.876 24.071 181.876 24.5584C181.876 24.6432 181.865 24.7385 181.844 24.8445C181.844 24.9505 181.833 25.0564 181.812 25.1624C181.727 25.6074 181.471 26.0312 181.046 26.4338C180.641 26.8153 180.312 27.1014 180.056 27.2921C180.269 27.3133 180.492 27.3345 180.727 27.3557C180.961 27.3557 181.216 27.3557 181.493 27.3557C182.493 27.3557 183.482 27.2921 184.461 27.1649C184.504 27.2921 184.525 27.3875 184.525 27.451C184.525 27.7265 184.44 28.0762 184.27 28.5C184.121 28.9238 183.961 29.3053 183.791 29.6443C183.706 29.8351 183.535 30.1847 183.28 30.6933C183.025 31.1807 182.748 31.7423 182.45 32.378C182.152 32.9926 181.897 33.6071 181.684 34.2217C181.493 34.815 181.397 35.3236 181.397 35.7474C181.397 36.2984 181.61 36.5739 182.035 36.5739C182.354 36.5739 182.706 36.3726 183.089 35.9699C183.472 35.5461 183.844 35.0375 184.206 34.4442C184.589 33.8296 184.929 33.2363 185.227 32.6641C185.546 32.0707 185.791 31.6045 185.961 31.2655C186.046 31.0536 186.163 30.9476 186.312 30.9476C186.397 30.9476 186.44 31.0218 186.44 31.1701C186.44 31.2549 186.408 31.382 186.344 31.5515C186.11 32.0389 185.834 32.5899 185.514 33.2045C185.195 33.819 184.833 34.423 184.429 35.0163C184.046 35.6097 183.62 36.1289 183.152 36.5739C182.706 36.9977 182.216 37.2732 181.684 37.4003C181.62 37.4215 181.503 37.4321 181.333 37.4321Z" fill="white"/>
<path d="M187.421 37.4003C186.825 37.4003 186.293 37.199 185.825 36.7964C185.357 36.3726 185.123 35.7156 185.123 34.8256C185.123 34.1263 185.251 33.268 185.506 32.2509C185.783 31.2125 186.113 30.1423 186.496 29.0404C186.9 27.9172 187.294 26.9001 187.677 25.9888H185.985C185.836 25.9888 185.761 25.8829 185.761 25.671C185.761 25.565 185.783 25.4696 185.825 25.3849C185.889 25.3001 185.974 25.2577 186.081 25.2577H187.996C188.357 24.4525 188.741 23.6684 189.145 22.9055C189.549 22.1426 189.943 21.4221 190.326 20.744C190.815 19.8963 191.337 19.2606 191.89 18.8368C192.443 18.4129 192.922 18.201 193.326 18.201C193.645 18.201 193.911 18.3282 194.124 18.5825C194.337 18.8156 194.443 19.1758 194.443 19.6632C194.443 19.9599 194.379 20.3731 194.252 20.9029C194.124 21.4115 193.922 21.9519 193.645 22.5241C193.496 22.8207 193.284 23.2446 193.007 23.7955C192.752 24.3465 192.496 24.8339 192.241 25.2577H193.773C193.922 25.2577 193.996 25.3637 193.996 25.5756C193.996 25.6604 193.975 25.7557 193.933 25.8617C193.89 25.9464 193.826 25.9888 193.741 25.9888H191.858C191.326 26.9001 190.719 27.7901 190.039 28.6589C189.358 29.5278 188.549 30.3966 187.613 31.2655C187.549 31.4562 187.464 31.7317 187.357 32.0919C187.272 32.4522 187.187 32.823 187.102 33.2045C187.038 33.5647 186.974 33.872 186.911 34.1263C186.868 34.3806 186.847 34.5077 186.847 34.5077C186.783 34.7832 186.751 35.0375 186.751 35.2706C186.751 35.7156 186.857 36.0441 187.07 36.256C187.283 36.4467 187.528 36.5421 187.804 36.5421C187.974 36.5421 188.145 36.5209 188.315 36.4785C188.485 36.415 188.677 36.309 188.889 36.1607C189.634 35.6309 190.283 34.9104 190.837 33.9991C191.411 33.0879 191.911 32.2085 192.337 31.3608C192.464 31.1065 192.592 30.9794 192.72 30.9794C192.805 30.9794 192.847 31.043 192.847 31.1701C192.847 31.2337 192.815 31.3502 192.752 31.5198C192.283 32.4946 191.89 33.2786 191.571 33.872C191.251 34.4654 190.943 34.9633 190.645 35.366C190.347 35.7474 189.996 36.1289 189.592 36.5103C189.294 36.807 188.953 37.0295 188.57 37.1778C188.187 37.3262 187.804 37.4003 187.421 37.4003ZM189.943 25.2577H191.571C191.869 24.7068 192.145 24.1664 192.401 23.6366C192.677 23.1068 192.922 22.577 193.135 22.0473C193.284 21.7082 193.411 21.3267 193.518 20.9029C193.624 20.4791 193.677 20.1506 193.677 19.9175C193.677 19.5997 193.603 19.4407 193.454 19.4407C193.347 19.4407 193.188 19.5361 192.975 19.7268C192.784 19.8963 192.539 20.193 192.241 20.6168C191.858 21.1466 191.475 21.8353 191.092 22.683C190.73 23.5094 190.347 24.3677 189.943 25.2577ZM187.868 30.2483C188.485 29.6125 189.06 28.9344 189.592 28.2139C190.145 27.4934 190.656 26.7517 191.124 25.9888H189.624C189.283 26.7729 188.964 27.5358 188.666 28.2775C188.368 29.0192 188.102 29.6761 187.868 30.2483Z" fill="white"/>
<path d="M199.173 37.4957C198.939 37.5169 198.673 37.4639 198.375 37.3368C198.077 37.2096 197.811 36.9765 197.577 36.6375C197.364 36.2984 197.258 35.8216 197.258 35.207C197.258 34.6985 197.353 34.0839 197.545 33.3634C197.29 33.766 196.96 34.264 196.555 34.8574C196.151 35.4296 195.715 35.9381 195.247 36.3832C194.842 36.7646 194.459 37.0401 194.098 37.2096C193.736 37.3792 193.406 37.4639 193.108 37.4639C192.555 37.4639 192.108 37.2202 191.768 36.7328C191.427 36.2242 191.257 35.5673 191.257 34.762C191.257 33.9144 191.47 32.9502 191.895 31.8694C192.321 30.7887 193.012 29.6655 193.97 28.5C194.587 27.7583 195.332 27.1649 196.204 26.7199C197.098 26.2537 197.97 26.0206 198.822 26.0206C199.311 26.0206 199.779 26.1054 200.226 26.2749C200.673 26.4233 201.067 26.6775 201.407 27.0378C201.556 27.1861 201.63 27.3557 201.63 27.5464C201.63 27.6735 201.577 27.7795 201.471 27.8643C201.364 27.949 201.226 27.9702 201.056 27.9278C200.822 27.1861 200.322 26.8153 199.556 26.8153C199.194 26.8153 198.779 26.9318 198.311 27.1649C197.587 27.5464 196.832 28.1715 196.045 29.0404C195.279 29.9092 194.608 30.8099 194.034 31.7423C193.949 31.8694 193.81 32.1131 193.619 32.4734C193.449 32.8336 193.278 33.2363 193.108 33.6813C192.938 34.1263 192.821 34.5607 192.757 34.9845C192.736 35.1117 192.725 35.207 192.725 35.2706C192.725 35.313 192.725 35.3872 192.725 35.4931C192.725 36.1924 192.991 36.5421 193.523 36.5421C194.162 36.5421 194.885 36.0759 195.694 35.1435C196.247 34.4653 196.747 33.7554 197.194 33.0137C197.641 32.2721 198.098 31.4774 198.566 30.6297C198.885 30.0576 199.183 29.5808 199.46 29.1993C199.737 28.8179 200.13 28.6271 200.641 28.6271C200.875 28.6271 201.109 28.6589 201.343 28.7225C201.577 28.7861 201.822 28.7967 202.077 28.7543C201.907 28.9238 201.673 29.2417 201.375 29.7079C201.098 30.1741 200.801 30.7039 200.481 31.2972C200.162 31.8906 199.875 32.4946 199.62 33.1091C199.364 33.7237 199.183 34.2534 199.077 34.6985C199.056 34.8256 199.024 35.0057 198.981 35.2388C198.96 35.4719 198.949 35.6415 198.949 35.7474C198.949 36.3408 199.12 36.6375 199.46 36.6375C199.8 36.6375 200.162 36.4361 200.545 36.0335C200.95 35.6309 201.343 35.1329 201.726 34.5395C202.109 33.9462 202.46 33.3528 202.78 32.7595C203.099 32.1449 203.354 31.6469 203.546 31.2655C203.631 31.0536 203.758 30.9476 203.929 30.9476C204.035 30.9476 204.088 31.0218 204.088 31.1701C204.088 31.2337 204.056 31.3502 203.992 31.5198C203.737 32.0495 203.429 32.6535 203.067 33.3316C202.705 33.9885 202.311 34.6349 201.886 35.2706C201.46 35.8852 201.013 36.4044 200.545 36.8282C200.098 37.2308 199.641 37.4533 199.173 37.4957Z" fill="white"/>
<path d="M207.075 24.4948C206.755 24.4948 206.489 24.3889 206.277 24.177C206.085 23.9439 205.989 23.6684 205.989 23.3505C205.989 22.9479 206.149 22.5982 206.468 22.3015C206.787 22.0049 207.138 21.8565 207.521 21.8565C207.862 21.8565 208.139 21.9625 208.351 22.1744C208.564 22.3863 208.67 22.6406 208.67 22.9373C208.67 23.3399 208.511 23.7002 208.192 24.018C207.873 24.3359 207.5 24.4948 207.075 24.4948ZM204.489 37.4003C203.702 37.4003 203.149 37.1778 202.829 36.7328C202.51 36.2666 202.351 35.7368 202.351 35.1435C202.351 34.8256 202.383 34.5077 202.446 34.1899C202.531 33.8508 202.627 33.5435 202.734 33.268L204.872 27.8325C204.936 27.6629 204.968 27.5146 204.968 27.3875C204.968 27.1755 204.915 26.9954 204.808 26.8471C204.702 26.6775 204.627 26.561 204.585 26.4974L206.34 26.4338C206.66 26.4127 206.883 26.455 207.011 26.561C207.16 26.6458 207.234 26.7517 207.234 26.8789C207.234 27.006 207.16 27.2391 207.011 27.5782L204.361 33.7766C204.361 33.7766 204.298 33.9144 204.17 34.1899C204.064 34.4442 204 34.6137 203.978 34.6985C203.915 35.0163 203.872 35.2176 203.851 35.3024C203.83 35.3872 203.819 35.4402 203.819 35.4613C203.819 35.4825 203.819 35.5673 203.819 35.7156C203.819 35.9911 203.883 36.2242 204.01 36.415C204.159 36.6057 204.404 36.701 204.745 36.701C204.957 36.701 205.202 36.6375 205.479 36.5103C205.755 36.3832 205.957 36.256 206.085 36.1289C206.617 35.5779 207.138 34.8574 207.649 33.9674C208.181 33.0561 208.67 32.1555 209.117 31.2655C209.202 31.0536 209.309 30.9476 209.437 30.9476C209.543 30.9476 209.596 31.0218 209.596 31.1701C209.596 31.2549 209.564 31.382 209.5 31.5515C209.288 31.9966 209.022 32.5475 208.702 33.2045C208.383 33.8614 208 34.5183 207.553 35.1753C207.128 35.811 206.66 36.3408 206.149 36.7646C205.638 37.1884 205.085 37.4003 204.489 37.4003Z" fill="white"/>
<path d="M206.078 37.6546C206.844 36.1077 207.578 34.5819 208.28 33.0773C209.004 31.5515 209.738 30.0999 210.483 28.7225C210.908 27.9596 211.26 27.4298 211.536 27.1332C211.834 26.8153 212.228 26.6564 212.717 26.6564C212.887 26.6564 213.068 26.6881 213.26 26.7517C213.451 26.7941 213.643 26.8153 213.834 26.8153C213.962 26.8153 214.058 26.8047 214.122 26.7835C213.824 26.953 213.441 27.3769 212.973 28.055C212.504 28.7119 212.026 29.4748 211.536 30.3436C211.047 31.2125 210.611 32.0284 210.228 32.7912C210.632 32.3038 211.047 31.8164 211.472 31.329C211.919 30.8416 212.409 30.3754 212.941 29.9304C213.451 29.4854 214.058 29.0298 214.76 28.5636C215.483 28.0762 216.186 27.6735 216.867 27.3557C217.548 27.0378 218.09 26.8789 218.494 26.8789C218.643 26.8789 218.75 26.8895 218.814 26.9107C218.814 26.9107 218.697 27.1226 218.462 27.5464C218.228 27.949 217.931 28.4894 217.569 29.1675C217.228 29.8245 216.877 30.5344 216.515 31.2972C216.154 32.0389 215.824 32.7595 215.526 33.4588C215.249 34.1369 215.068 34.7091 214.983 35.1753C214.92 35.4507 214.888 35.705 214.888 35.9381C214.888 36.2772 214.951 36.4997 215.079 36.6057C215.207 36.7116 215.345 36.7646 215.494 36.7646C215.898 36.7646 216.324 36.5527 216.771 36.1289C217.218 35.6839 217.643 35.1435 218.048 34.5077C218.473 33.872 218.846 33.2575 219.165 32.6641C219.505 32.0495 219.75 31.5833 219.899 31.2655C219.984 31.0959 220.048 31.0006 220.09 30.9794C220.133 30.937 220.197 30.9158 220.282 30.9158C220.41 30.9158 220.473 31.0006 220.473 31.1701C220.473 31.2761 220.441 31.3926 220.378 31.5198C220.122 32.0072 219.814 32.5899 219.452 33.268C219.111 33.9462 218.718 34.6137 218.271 35.2706C217.824 35.9064 217.335 36.4467 216.803 36.8918C216.271 37.3156 215.696 37.5275 215.079 37.5275C214.654 37.5275 214.207 37.3792 213.739 37.0825C213.292 36.7858 213.068 36.2348 213.068 35.4296C213.068 35.1964 213.09 34.9527 213.132 34.6985C213.175 34.423 213.249 34.1263 213.356 33.8084C213.526 33.3846 213.728 32.929 213.962 32.4416C214.196 31.9542 214.579 31.2867 215.111 30.439C215.26 30.2059 215.345 30.0258 215.366 29.8986C215.409 29.7715 215.43 29.6655 215.43 29.5808C215.43 29.3265 215.313 29.1993 215.079 29.1993C214.888 29.1993 214.6 29.3053 214.217 29.5172C213.856 29.7291 213.398 30.0999 212.845 30.6297C212.313 31.1383 211.674 31.8588 210.93 32.7912C210.206 33.7237 209.366 35.1011 208.408 36.9235C208.259 37.199 208.089 37.3474 207.897 37.3686C207.727 37.3897 207.483 37.4109 207.163 37.4321C206.951 37.4533 206.748 37.4639 206.557 37.4639C206.365 37.4851 206.206 37.5487 206.078 37.6546Z" fill="white"/>
<path d="M216.833 37.5593C217.62 36.0547 218.365 34.5501 219.067 33.0455C219.769 31.5198 220.482 30.0788 221.205 28.7225C221.631 27.9596 221.982 27.4298 222.259 27.1332C222.557 26.8153 222.95 26.6564 223.44 26.6564C223.61 26.6564 223.791 26.6881 223.982 26.7517C224.174 26.7941 224.365 26.8153 224.557 26.8153C224.685 26.8153 224.78 26.8047 224.844 26.7835C224.546 26.953 224.163 27.3769 223.695 28.055C223.227 28.7119 222.748 29.4748 222.259 30.3436C221.769 31.2125 221.333 32.0284 220.95 32.7912C221.354 32.3038 221.769 31.8164 222.195 31.329C222.642 30.8416 223.131 30.3754 223.663 29.9304C224.131 29.5278 224.621 29.0934 225.131 28.6271C225.663 28.1397 226.185 27.7265 226.695 27.3875C227.206 27.0484 227.653 26.8789 228.036 26.8789C228.185 26.8789 228.281 26.8895 228.323 26.9107C228.728 27.0802 228.93 27.3557 228.93 27.7371C228.93 27.8643 228.877 28.055 228.77 28.3093C228.494 29.0298 228.132 29.7715 227.685 30.5344C227.259 31.2761 226.855 32.0284 226.472 32.7912C226.791 32.4098 227.185 31.9436 227.653 31.3926C228.142 30.8416 228.632 30.3542 229.121 29.9304C229.589 29.5066 230.185 29.0616 230.909 28.5954C231.632 28.1292 232.345 27.7265 233.047 27.3875C233.749 27.0484 234.313 26.8789 234.739 26.8789C234.888 26.8789 234.994 26.8895 235.058 26.9107C235.058 26.9107 234.941 27.1226 234.707 27.5464C234.473 27.949 234.175 28.4894 233.813 29.1675C233.473 29.8245 233.122 30.5344 232.76 31.2972C232.398 32.0389 232.068 32.7595 231.771 33.4588C231.494 34.1369 231.313 34.7091 231.228 35.1753C231.164 35.4507 231.132 35.705 231.132 35.9381C231.132 36.2772 231.196 36.4997 231.324 36.6057C231.451 36.7116 231.59 36.7646 231.739 36.7646C232.164 36.7646 232.6 36.5421 233.047 36.0971C233.494 35.6521 233.92 35.1223 234.324 34.5077C234.75 33.872 235.122 33.2575 235.441 32.6641C235.76 32.0495 235.994 31.5833 236.143 31.2655C236.271 31.0324 236.399 30.9158 236.526 30.9158C236.654 30.9158 236.718 31.0006 236.718 31.1701C236.718 31.2761 236.686 31.3926 236.622 31.5198C236.367 32.0072 236.058 32.5899 235.697 33.268C235.356 33.9462 234.962 34.6137 234.516 35.2706C234.069 35.9064 233.569 36.4467 233.015 36.8918C232.483 37.3156 231.909 37.5275 231.292 37.5275C230.845 37.5275 230.387 37.3792 229.919 37.0825C229.472 36.7858 229.249 36.2348 229.249 35.4296C229.249 34.9845 229.345 34.4442 229.536 33.8084C229.685 33.3846 229.909 32.8972 230.207 32.3462C230.526 31.7952 230.909 31.1595 231.356 30.439C231.568 30.0788 231.675 29.7927 231.675 29.5808C231.675 29.3265 231.547 29.1993 231.292 29.1993C231.079 29.1993 230.781 29.3053 230.398 29.5172C230.036 29.7291 229.579 30.0999 229.026 30.6297C228.685 30.9476 228.281 31.3926 227.813 31.9648C227.366 32.5157 226.908 33.1197 226.44 33.7766C225.972 34.4336 225.568 35.0799 225.227 35.7156C224.887 36.3514 224.663 36.9129 224.557 37.4003C224.238 37.4003 223.982 37.2732 223.791 37.0189C223.599 36.7434 223.504 36.4255 223.504 36.0653C223.504 36.0017 223.504 35.9381 223.504 35.8746C223.504 35.811 223.514 35.7368 223.536 35.6521C223.642 34.9951 223.812 34.3806 224.046 33.8084C224.28 33.2363 224.546 32.6429 224.844 32.0283C225.078 31.5833 225.312 31.1065 225.546 30.5979C225.78 30.0682 225.898 29.6655 225.898 29.39C225.898 29.2205 225.834 29.1357 225.706 29.1357C225.557 29.1357 225.312 29.2523 224.972 29.4854C224.631 29.6973 224.163 30.0788 223.567 30.6297C223.035 31.1383 222.386 31.8694 221.62 32.823C220.876 33.7766 220.056 35.1329 219.163 36.8918C219.035 37.1249 218.886 37.2732 218.716 37.3368C218.546 37.3792 218.28 37.4003 217.918 37.4003C217.684 37.4003 217.492 37.4003 217.343 37.4003C217.173 37.4215 217.003 37.4745 216.833 37.5593Z" fill="white"/>
<path d="M238.339 37.5275C237.552 37.5275 236.839 37.2732 236.2 36.7646C235.583 36.256 235.275 35.4825 235.275 34.4442C235.275 33.4906 235.509 32.4734 235.977 31.3926C236.445 30.2907 237.041 29.3265 237.764 28.5C238.382 27.7795 239.073 27.1861 239.839 26.7199C240.605 26.2537 241.329 26.0206 242.01 26.0206C242.478 26.0206 242.882 26.1478 243.223 26.4021C243.584 26.6775 243.765 27.0696 243.765 27.5782C243.765 28.108 243.563 28.6907 243.159 29.3265C242.754 29.9622 242.18 30.5556 241.435 31.1065C241.116 31.3396 240.712 31.5621 240.222 31.7741C239.733 31.986 239.243 32.1661 238.754 32.3144C238.265 32.4416 237.86 32.5052 237.541 32.5052C237.435 32.7595 237.328 33.0985 237.222 33.5223C237.137 33.9462 237.094 34.3806 237.094 34.8256C237.094 35.3554 237.201 35.8322 237.413 36.256C237.626 36.6798 238.02 36.8918 238.594 36.8918C239.297 36.8918 239.935 36.6904 240.509 36.2878C241.084 35.8852 241.595 35.3872 242.042 34.7938C242.488 34.1793 242.861 33.5647 243.159 32.9502C243.478 32.3356 243.733 31.8164 243.925 31.3926C244.052 31.0959 244.223 30.9476 244.435 30.9476C244.542 30.9476 244.595 31.0006 244.595 31.1065C244.595 31.1913 244.563 31.2973 244.499 31.4244C244.201 32.0601 243.882 32.7383 243.542 33.4588C243.201 34.1581 242.797 34.8256 242.329 35.4613C241.861 36.0759 241.297 36.5739 240.637 36.9553C239.999 37.3368 239.233 37.5275 238.339 37.5275ZM237.764 31.933C238.062 31.933 238.562 31.827 239.265 31.6151C239.967 31.382 240.605 31.0218 241.18 30.5344C241.733 30.047 242.159 29.5172 242.457 28.945C242.754 28.3517 242.903 27.8537 242.903 27.451C242.903 26.9848 242.733 26.7517 242.393 26.7517C242.137 26.7517 241.786 26.9213 241.339 27.2603C240.892 27.5994 240.339 28.1715 239.68 28.9768C239.275 29.4854 238.892 30.0364 238.531 30.6297C238.169 31.2231 237.913 31.6575 237.764 31.933Z" fill="white"/>
<path d="M240.958 37.6546C241.724 36.1077 242.458 34.5819 243.16 33.0773C243.884 31.5515 244.618 30.0999 245.363 28.7225C245.788 27.9596 246.139 27.4298 246.416 27.1332C246.714 26.8153 247.107 26.6564 247.597 26.6564C247.767 26.6564 247.948 26.6881 248.139 26.7517C248.331 26.7941 248.523 26.8153 248.714 26.8153C248.842 26.8153 248.937 26.8047 249.001 26.7835C248.703 26.953 248.32 27.3769 247.852 28.055C247.384 28.7119 246.905 29.4748 246.416 30.3436C245.926 31.2125 245.49 32.0284 245.107 32.7912C245.512 32.3038 245.926 31.8164 246.352 31.329C246.799 30.8416 247.288 30.3754 247.82 29.9304C248.331 29.4854 248.937 29.0298 249.64 28.5636C250.363 28.0762 251.065 27.6735 251.746 27.3557C252.427 27.0378 252.97 26.8789 253.374 26.8789C253.523 26.8789 253.629 26.8895 253.693 26.9107C253.693 26.9107 253.576 27.1226 253.342 27.5464C253.108 27.949 252.81 28.4894 252.448 29.1675C252.108 29.8245 251.757 30.5344 251.395 31.2972C251.033 32.0389 250.704 32.7595 250.406 33.4588C250.129 34.1369 249.948 34.7091 249.863 35.1753C249.799 35.4507 249.767 35.705 249.767 35.9381C249.767 36.2772 249.831 36.4997 249.959 36.6057C250.087 36.7116 250.225 36.7646 250.374 36.7646C250.778 36.7646 251.204 36.5527 251.651 36.1289C252.097 35.6839 252.523 35.1435 252.927 34.5077C253.353 33.872 253.725 33.2575 254.044 32.6641C254.385 32.0495 254.63 31.5833 254.779 31.2655C254.864 31.0959 254.928 31.0006 254.97 30.9794C255.013 30.937 255.076 30.9158 255.162 30.9158C255.289 30.9158 255.353 31.0006 255.353 31.1701C255.353 31.2761 255.321 31.3926 255.257 31.5198C255.002 32.0072 254.693 32.5899 254.332 33.268C253.991 33.9462 253.598 34.6137 253.151 35.2706C252.704 35.9064 252.214 36.4467 251.682 36.8918C251.15 37.3156 250.576 37.5275 249.959 37.5275C249.533 37.5275 249.086 37.3792 248.618 37.0825C248.171 36.7858 247.948 36.2348 247.948 35.4296C247.948 35.1964 247.969 34.9527 248.012 34.6985C248.054 34.423 248.129 34.1263 248.235 33.8084C248.405 33.3846 248.608 32.929 248.842 32.4416C249.076 31.9542 249.459 31.2867 249.991 30.439C250.14 30.2059 250.225 30.0258 250.246 29.8986C250.289 29.7715 250.31 29.6655 250.31 29.5808C250.31 29.3265 250.193 29.1993 249.959 29.1993C249.767 29.1993 249.48 29.3053 249.097 29.5172C248.735 29.7291 248.278 30.0999 247.725 30.6297C247.193 31.1383 246.554 31.8588 245.809 32.7912C245.086 33.7237 244.245 35.1011 243.288 36.9235C243.139 37.199 242.969 37.3474 242.777 37.3686C242.607 37.3897 242.362 37.4109 242.043 37.4321C241.83 37.4533 241.628 37.4639 241.437 37.4639C241.245 37.4851 241.085 37.5487 240.958 37.6546Z" fill="white"/>
<path d="M256.277 37.4003C255.681 37.4003 255.149 37.199 254.681 36.7964C254.213 36.3726 253.979 35.7156 253.979 34.8256C253.979 34.1263 254.106 33.268 254.362 32.2509C254.638 31.2125 254.968 30.1423 255.351 29.0404C255.755 27.9172 256.149 26.9001 256.532 25.9888H254.84C254.691 25.9888 254.617 25.8829 254.617 25.671C254.617 25.565 254.638 25.4696 254.681 25.3849C254.745 25.3001 254.83 25.2577 254.936 25.2577H256.851C257.213 24.4525 257.596 23.6684 258 22.9055C258.405 22.1426 258.798 21.4221 259.181 20.744C259.671 19.8963 260.192 19.2606 260.745 18.8368C261.299 18.4129 261.777 18.201 262.182 18.201C262.501 18.201 262.767 18.3282 262.98 18.5825C263.192 18.8156 263.299 19.1758 263.299 19.6632C263.299 19.9599 263.235 20.3731 263.107 20.9029C262.98 21.4115 262.777 21.9519 262.501 22.5241C262.352 22.8207 262.139 23.2446 261.862 23.7955C261.607 24.3465 261.352 24.8339 261.096 25.2577H262.629C262.777 25.2577 262.852 25.3637 262.852 25.5756C262.852 25.6604 262.831 25.7557 262.788 25.8617C262.746 25.9464 262.682 25.9888 262.597 25.9888H260.713C260.181 26.9001 259.575 27.7901 258.894 28.6589C258.213 29.5278 257.405 30.3966 256.468 31.2655C256.404 31.4562 256.319 31.7317 256.213 32.0919C256.128 32.4522 256.043 32.823 255.958 33.2045C255.894 33.5647 255.83 33.872 255.766 34.1263C255.723 34.3806 255.702 34.5077 255.702 34.5077C255.638 34.7832 255.606 35.0375 255.606 35.2706C255.606 35.7156 255.713 36.0441 255.926 36.256C256.138 36.4467 256.383 36.5421 256.66 36.5421C256.83 36.5421 257 36.5209 257.17 36.4785C257.341 36.415 257.532 36.309 257.745 36.1607C258.49 35.6309 259.139 34.9104 259.692 33.9991C260.267 33.0879 260.767 32.2085 261.192 31.3608C261.32 31.1065 261.448 30.9794 261.575 30.9794C261.66 30.9794 261.703 31.043 261.703 31.1701C261.703 31.2337 261.671 31.3502 261.607 31.5198C261.139 32.4946 260.745 33.2786 260.426 33.872C260.107 34.4654 259.798 34.9633 259.501 35.366C259.203 35.7474 258.852 36.1289 258.447 36.5103C258.149 36.807 257.809 37.0295 257.426 37.1778C257.043 37.3262 256.66 37.4003 256.277 37.4003ZM258.798 25.2577H260.426C260.724 24.7068 261.001 24.1664 261.256 23.6366C261.533 23.1068 261.777 22.577 261.99 22.0473C262.139 21.7082 262.267 21.3267 262.373 20.9029C262.48 20.4791 262.533 20.1506 262.533 19.9175C262.533 19.5997 262.458 19.4407 262.309 19.4407C262.203 19.4407 262.043 19.5361 261.831 19.7268C261.639 19.8963 261.394 20.193 261.096 20.6168C260.713 21.1466 260.33 21.8353 259.947 22.683C259.586 23.5094 259.203 24.3677 258.798 25.2577ZM256.724 30.2483C257.341 29.6125 257.915 28.9344 258.447 28.2139C259 27.4934 259.511 26.7517 259.979 25.9888H258.479C258.139 26.7729 257.819 27.5358 257.522 28.2775C257.224 29.0192 256.958 29.6761 256.724 30.2483Z" fill="white"/>
<path d="M293.46 47C293.268 47 293.226 46.8517 293.332 46.555C293.46 46.2795 293.577 46.0252 293.683 45.7921C293.875 45.4107 293.971 44.8173 293.971 44.012C293.971 43.3127 293.843 42.5604 293.587 41.7552C293.332 40.9499 292.832 40.2188 292.087 39.5619C291.066 38.6294 289.917 37.8877 288.64 37.3368C287.363 36.7858 286.023 36.3408 284.618 36.0017C283.235 35.6627 281.863 35.366 280.501 35.1117C279.671 36.256 278.777 37.2838 277.82 38.195C276.883 39.1062 275.883 39.8056 274.819 40.293C274.224 40.5684 273.649 40.7698 273.096 40.8969C272.543 41.0452 272.021 41.1194 271.532 41.1194C270.34 41.1194 269.361 40.8015 268.595 40.1658C267.851 39.5513 267.478 38.8202 267.478 37.9725C267.478 37.1672 267.84 36.3832 268.563 35.6203C269.308 34.8362 270.532 34.1899 272.234 33.6813C272.915 33.4905 273.67 33.3528 274.5 33.268C275.33 33.1621 276.192 33.1091 277.086 33.1091C277.639 33.1091 278.181 33.1303 278.713 33.1727C279.267 33.1939 279.777 33.2574 280.246 33.3634C280.863 32.431 281.437 31.4668 281.969 30.4708C282.501 29.4536 283.054 28.3517 283.629 27.1649C281.948 27.2073 280.49 26.9636 279.256 26.4338C278.022 25.8829 277.064 25.1518 276.383 24.2406C275.724 23.3293 275.394 22.3545 275.394 21.3162C275.394 20.4685 275.639 19.642 276.128 18.8368C276.617 18.0103 277.384 17.2686 278.426 16.6117C279.49 15.9336 280.841 15.4038 282.48 15.0223C282.586 14.98 282.682 14.9588 282.767 14.9588C282.874 14.9588 282.969 14.9588 283.054 14.9588C283.374 14.9588 283.533 15.0223 283.533 15.1495C283.533 15.3614 283.193 15.5097 282.512 15.5945C281.405 15.7217 280.426 16.1137 279.575 16.7706C278.745 17.4276 278.096 18.2116 277.628 19.1229C277.181 20.0341 276.958 20.9559 276.958 21.8883C276.958 22.6936 277.149 23.4459 277.532 24.1452C277.915 24.8445 278.522 25.4167 279.352 25.8617C280.182 26.2855 281.256 26.4974 282.576 26.4974C283.044 26.4974 283.544 26.4656 284.076 26.4021C284.161 26.2325 284.299 25.8935 284.491 25.3849C284.704 24.8551 284.938 24.2617 285.193 23.6048C285.448 22.9479 285.693 22.3121 285.927 21.6976C286.182 21.083 286.385 20.5745 286.534 20.1718C286.704 19.748 286.789 19.5361 286.789 19.5361C287.768 17.0991 288.768 15.1919 289.789 13.8144C290.832 12.4158 291.832 11.4304 292.79 10.8582C293.768 10.2861 294.641 10 295.407 10C296.237 10 296.918 10.2437 297.45 10.7311C298.003 11.2185 298.301 11.7695 298.343 12.384C298.365 12.5747 298.375 12.7125 298.375 12.7973C298.375 12.882 298.375 12.988 298.375 13.1151C298.375 14.3654 298.12 15.6157 297.609 16.866C297.12 18.1163 296.428 19.303 295.535 20.4261C294.662 21.5493 293.651 22.5664 292.502 23.4777C291.374 24.3889 290.162 25.1518 288.864 25.7663C287.587 26.3809 286.289 26.8047 284.97 27.0378C284.65 27.6735 284.363 28.2457 284.108 28.7543C283.874 29.2417 283.608 29.7715 283.31 30.3436C283.012 30.9158 282.618 31.6469 282.129 32.5369C281.98 32.8124 281.863 33.0137 281.778 33.1409C281.714 33.2469 281.607 33.4164 281.458 33.6495C282.522 33.9038 283.682 34.264 284.938 34.7302C286.193 35.1753 287.427 35.7156 288.64 36.3514C289.874 36.9659 290.97 37.644 291.928 38.3857C293.119 39.297 293.96 40.3247 294.449 41.4691C294.96 42.6134 295.215 43.62 295.215 44.4888C295.215 45.1034 295.12 45.5696 294.928 45.8875C294.651 46.3537 294.375 46.6503 294.098 46.7775C293.822 46.9258 293.609 47 293.46 47ZM285.416 26.1796C286.863 25.8617 288.278 25.2895 289.662 24.4631C291.045 23.6154 292.289 22.5982 293.396 21.4115C294.503 20.2036 295.386 18.9003 296.045 17.5017C296.705 16.0819 297.035 14.6409 297.035 13.1787C297.035 12.8184 296.939 12.5218 296.747 12.2887C296.556 12.0556 296.279 11.939 295.918 11.939C295.428 11.939 294.8 12.2145 294.034 12.7655C293.268 13.2952 292.396 14.1959 291.417 15.4674C290.438 16.7176 289.385 18.4447 288.257 20.6486C288.257 20.6486 288.108 20.9241 287.81 21.4751C287.534 22.0261 287.172 22.7254 286.725 23.573C286.299 24.3995 285.863 25.2683 285.416 26.1796ZM271.085 40.1976C271.553 40.1976 272.053 40.134 272.585 40.0069C273.138 39.8797 273.713 39.6784 274.309 39.4029C276.096 38.5341 277.745 37.0295 279.256 34.8892C278.767 34.7832 278.256 34.7091 277.724 34.6667C277.192 34.6031 276.649 34.5713 276.096 34.5713C275.522 34.5713 274.926 34.6031 274.309 34.6667C273.713 34.7302 273.128 34.8468 272.553 35.0163C271.128 35.3978 270.032 35.8852 269.266 36.4785C268.521 37.0719 268.148 37.6758 268.148 38.2904C268.148 38.8202 268.414 39.2652 268.946 39.6254C269.478 40.0069 270.191 40.1976 271.085 40.1976Z" fill="white"/>
<path d="M295.848 24.4948C295.529 24.4948 295.263 24.3889 295.05 24.177C294.859 23.9439 294.763 23.6684 294.763 23.3505C294.763 22.9479 294.922 22.5982 295.242 22.3015C295.561 22.0049 295.912 21.8565 296.295 21.8565C296.635 21.8565 296.912 21.9625 297.125 22.1744C297.337 22.3863 297.444 22.6406 297.444 22.9373C297.444 23.3399 297.284 23.7002 296.965 24.018C296.646 24.3359 296.274 24.4948 295.848 24.4948ZM293.263 37.4003C292.475 37.4003 291.922 37.1778 291.603 36.7328C291.284 36.2666 291.124 35.7368 291.124 35.1435C291.124 34.8256 291.156 34.5077 291.22 34.1899C291.305 33.8508 291.401 33.5435 291.507 33.268L293.646 27.8325C293.709 27.6629 293.741 27.5146 293.741 27.3875C293.741 27.1755 293.688 26.9954 293.582 26.8471C293.475 26.6775 293.401 26.561 293.358 26.4974L295.114 26.4338C295.433 26.4127 295.656 26.455 295.784 26.561C295.933 26.6458 296.008 26.7517 296.008 26.8789C296.008 27.006 295.933 27.2391 295.784 27.5782L293.135 33.7766C293.135 33.7766 293.071 33.9144 292.943 34.1899C292.837 34.4442 292.773 34.6137 292.752 34.6985C292.688 35.0163 292.645 35.2176 292.624 35.3024C292.603 35.3872 292.592 35.4402 292.592 35.4613C292.592 35.4825 292.592 35.5673 292.592 35.7156C292.592 35.9911 292.656 36.2242 292.784 36.415C292.933 36.6057 293.177 36.701 293.518 36.701C293.731 36.701 293.975 36.6375 294.252 36.5103C294.529 36.3832 294.731 36.256 294.859 36.1289C295.391 35.5779 295.912 34.8574 296.423 33.9674C296.954 33.0561 297.444 32.1555 297.891 31.2655C297.976 31.0536 298.082 30.9476 298.21 30.9476C298.316 30.9476 298.37 31.0218 298.37 31.1701C298.37 31.2549 298.338 31.382 298.274 31.5515C298.061 31.9966 297.795 32.5475 297.476 33.2045C297.157 33.8614 296.774 34.5183 296.327 35.1753C295.901 35.811 295.433 36.3408 294.922 36.7646C294.412 37.1884 293.858 37.4003 293.263 37.4003Z" fill="white"/>
<path d="M294.883 37.5593C295.671 36.0547 296.416 34.5501 297.118 33.0455C297.82 31.5198 298.533 30.0788 299.256 28.7225C299.682 27.9596 300.033 27.4298 300.31 27.1332C300.607 26.8153 301.001 26.6564 301.491 26.6564C301.661 26.6564 301.842 26.6881 302.033 26.7517C302.225 26.7941 302.416 26.8153 302.608 26.8153C302.735 26.8153 302.831 26.8047 302.895 26.7835C302.597 26.953 302.214 27.3769 301.746 28.055C301.278 28.7119 300.799 29.4748 300.31 30.3436C299.82 31.2125 299.384 32.0284 299.001 32.7912C299.405 32.3038 299.82 31.8164 300.246 31.329C300.693 30.8416 301.182 30.3754 301.714 29.9304C302.182 29.5278 302.672 29.0934 303.182 28.6271C303.714 28.1397 304.236 27.7265 304.746 27.3875C305.257 27.0484 305.704 26.8789 306.087 26.8789C306.236 26.8789 306.332 26.8895 306.374 26.9107C306.778 27.0802 306.981 27.3557 306.981 27.7371C306.981 27.8643 306.927 28.055 306.821 28.3093C306.544 29.0298 306.183 29.7715 305.736 30.5344C305.31 31.2761 304.906 32.0284 304.523 32.7912C304.842 32.4098 305.236 31.9436 305.704 31.3926C306.193 30.8416 306.683 30.3542 307.172 29.9304C307.64 29.5066 308.236 29.0616 308.96 28.5954C309.683 28.1292 310.396 27.7265 311.098 27.3875C311.8 27.0484 312.364 26.8789 312.79 26.8789C312.939 26.8789 313.045 26.8895 313.109 26.9107C313.109 26.9107 312.992 27.1226 312.758 27.5464C312.524 27.949 312.226 28.4894 311.864 29.1675C311.524 29.8245 311.173 30.5344 310.811 31.2972C310.449 32.0389 310.119 32.7595 309.821 33.4588C309.545 34.1369 309.364 34.7091 309.279 35.1753C309.215 35.4507 309.183 35.705 309.183 35.9381C309.183 36.2772 309.247 36.4997 309.374 36.6057C309.502 36.7116 309.64 36.7646 309.789 36.7646C310.215 36.7646 310.651 36.5421 311.098 36.0971C311.545 35.6521 311.97 35.1223 312.375 34.5077C312.8 33.872 313.173 33.2575 313.492 32.6641C313.811 32.0495 314.045 31.5833 314.194 31.2655C314.322 31.0324 314.45 30.9158 314.577 30.9158C314.705 30.9158 314.769 31.0006 314.769 31.1701C314.769 31.2761 314.737 31.3926 314.673 31.5198C314.418 32.0072 314.109 32.5899 313.747 33.268C313.407 33.9462 313.013 34.6137 312.566 35.2706C312.119 35.9064 311.619 36.4467 311.066 36.8918C310.534 37.3156 309.96 37.5275 309.343 37.5275C308.896 37.5275 308.438 37.3792 307.97 37.0825C307.523 36.7858 307.3 36.2348 307.3 35.4296C307.3 34.9845 307.396 34.4442 307.587 33.8084C307.736 33.3846 307.959 32.8972 308.257 32.3462C308.577 31.7952 308.96 31.1595 309.406 30.439C309.619 30.0788 309.726 29.7927 309.726 29.5808C309.726 29.3265 309.598 29.1993 309.343 29.1993C309.13 29.1993 308.832 29.3053 308.449 29.5172C308.087 29.7291 307.63 30.0999 307.076 30.6297C306.736 30.9476 306.332 31.3926 305.863 31.9648C305.417 32.5157 304.959 33.1197 304.491 33.7766C304.023 34.4336 303.618 35.0799 303.278 35.7156C302.938 36.3514 302.714 36.9129 302.608 37.4003C302.289 37.4003 302.033 37.2732 301.842 37.0189C301.65 36.7434 301.554 36.4255 301.554 36.0653C301.554 36.0017 301.554 35.9381 301.554 35.8746C301.554 35.811 301.565 35.7368 301.586 35.6521C301.693 34.9951 301.863 34.3806 302.097 33.8084C302.331 33.2363 302.597 32.6429 302.895 32.0283C303.129 31.5833 303.363 31.1065 303.597 30.5979C303.831 30.0682 303.948 29.6655 303.948 29.39C303.948 29.2205 303.884 29.1357 303.757 29.1357C303.608 29.1357 303.363 29.2523 303.023 29.4854C302.682 29.6973 302.214 30.0788 301.618 30.6297C301.086 31.1383 300.437 31.8694 299.671 32.823C298.926 33.7766 298.107 35.1329 297.213 36.8918C297.086 37.1249 296.937 37.2732 296.767 37.3368C296.596 37.3792 296.33 37.4003 295.969 37.4003C295.735 37.4003 295.543 37.4003 295.394 37.4003C295.224 37.4215 295.054 37.4745 294.883 37.5593Z" fill="white"/>
<path d="M317.698 24.4948C317.379 24.4948 317.113 24.3889 316.901 24.177C316.709 23.9439 316.613 23.6684 316.613 23.3505C316.613 22.9479 316.773 22.5982 317.092 22.3015C317.411 22.0049 317.762 21.8565 318.145 21.8565C318.486 21.8565 318.762 21.9625 318.975 22.1744C319.188 22.3863 319.294 22.6406 319.294 22.9373C319.294 23.3399 319.135 23.7002 318.816 24.018C318.496 24.3359 318.124 24.4948 317.698 24.4948ZM315.113 37.4003C314.326 37.4003 313.772 37.1778 313.453 36.7328C313.134 36.2666 312.975 35.7368 312.975 35.1435C312.975 34.8256 313.006 34.5077 313.07 34.1899C313.155 33.8508 313.251 33.5435 313.358 33.268L315.496 27.8325C315.56 27.6629 315.592 27.5146 315.592 27.3875C315.592 27.1755 315.539 26.9954 315.432 26.8471C315.326 26.6775 315.251 26.561 315.209 26.4974L316.964 26.4338C317.284 26.4127 317.507 26.455 317.635 26.561C317.784 26.6458 317.858 26.7517 317.858 26.8789C317.858 27.006 317.784 27.2391 317.635 27.5782L314.985 33.7766C314.985 33.7766 314.922 33.9144 314.794 34.1899C314.687 34.4442 314.624 34.6137 314.602 34.6985C314.539 35.0163 314.496 35.2176 314.475 35.3024C314.453 35.3872 314.443 35.4402 314.443 35.4613C314.443 35.4825 314.443 35.5673 314.443 35.7156C314.443 35.9911 314.507 36.2242 314.634 36.415C314.783 36.6057 315.028 36.701 315.368 36.701C315.581 36.701 315.826 36.6375 316.103 36.5103C316.379 36.3832 316.581 36.256 316.709 36.1289C317.241 35.5779 317.762 34.8574 318.273 33.9674C318.805 33.0561 319.294 32.1555 319.741 31.2655C319.826 31.0536 319.933 30.9476 320.06 30.9476C320.167 30.9476 320.22 31.0218 320.22 31.1701C320.22 31.2549 320.188 31.382 320.124 31.5515C319.911 31.9966 319.645 32.5475 319.326 33.2045C319.007 33.8614 318.624 34.5183 318.177 35.1753C317.752 35.811 317.284 36.3408 316.773 36.7646C316.262 37.1884 315.709 37.4003 315.113 37.4003Z" fill="white"/>
<path d="M321.298 37.4003C320.702 37.4003 320.17 37.199 319.702 36.7964C319.234 36.3726 319 35.7156 319 34.8256C319 34.1263 319.128 33.268 319.383 32.2509C319.66 31.2125 319.99 30.1423 320.373 29.0404C320.777 27.9172 321.171 26.9001 321.554 25.9888H319.862C319.713 25.9888 319.639 25.8829 319.639 25.671C319.639 25.565 319.66 25.4696 319.702 25.3849C319.766 25.3001 319.851 25.2577 319.958 25.2577H321.873C322.235 24.4525 322.618 23.6684 323.022 22.9055C323.426 22.1426 323.82 21.4221 324.203 20.744C324.692 19.8963 325.214 19.2606 325.767 18.8368C326.32 18.4129 326.799 18.201 327.203 18.201C327.522 18.201 327.788 18.3282 328.001 18.5825C328.214 18.8156 328.32 19.1758 328.32 19.6632C328.32 19.9599 328.257 20.3731 328.129 20.9029C328.001 21.4115 327.799 21.9519 327.522 22.5241C327.373 22.8207 327.161 23.2446 326.884 23.7955C326.629 24.3465 326.373 24.8339 326.118 25.2577H327.65C327.799 25.2577 327.873 25.3637 327.873 25.5756C327.873 25.6604 327.852 25.7557 327.81 25.8617C327.767 25.9464 327.703 25.9888 327.618 25.9888H325.735C325.203 26.9001 324.597 27.7901 323.916 28.6589C323.235 29.5278 322.426 30.3966 321.49 31.2655C321.426 31.4562 321.341 31.7317 321.234 32.0919C321.149 32.4522 321.064 32.823 320.979 33.2045C320.915 33.5647 320.851 33.872 320.788 34.1263C320.745 34.3806 320.724 34.5077 320.724 34.5077C320.66 34.7832 320.628 35.0375 320.628 35.2706C320.628 35.7156 320.734 36.0441 320.947 36.256C321.16 36.4467 321.405 36.5421 321.681 36.5421C321.852 36.5421 322.022 36.5209 322.192 36.4785C322.362 36.415 322.554 36.309 322.767 36.1607C323.511 35.6309 324.16 34.9104 324.714 33.9991C325.288 33.0879 325.788 32.2085 326.214 31.3608C326.341 31.1065 326.469 30.9794 326.597 30.9794C326.682 30.9794 326.724 31.043 326.724 31.1701C326.724 31.2337 326.693 31.3502 326.629 31.5198C326.161 32.4946 325.767 33.2786 325.448 33.872C325.128 34.4654 324.82 34.9633 324.522 35.366C324.224 35.7474 323.873 36.1289 323.469 36.5103C323.171 36.807 322.83 37.0295 322.447 37.1778C322.064 37.3262 321.681 37.4003 321.298 37.4003ZM323.82 25.2577H325.448C325.746 24.7068 326.022 24.1664 326.278 23.6366C326.554 23.1068 326.799 22.577 327.012 22.0473C327.161 21.7082 327.288 21.3267 327.395 20.9029C327.501 20.4791 327.554 20.1506 327.554 19.9175C327.554 19.5997 327.48 19.4407 327.331 19.4407C327.224 19.4407 327.065 19.5361 326.852 19.7268C326.661 19.8963 326.416 20.193 326.118 20.6168C325.735 21.1466 325.352 21.8353 324.969 22.683C324.607 23.5094 324.224 24.3677 323.82 25.2577ZM321.745 30.2483C322.362 29.6125 322.937 28.9344 323.469 28.2139C324.022 27.4934 324.533 26.7517 325.001 25.9888H323.501C323.16 26.7729 322.841 27.5358 322.543 28.2775C322.245 29.0192 321.979 29.6761 321.745 30.2483Z" fill="white"/>
<path d="M328.422 37.5275C327.634 37.5275 326.921 37.2732 326.283 36.7646C325.666 36.256 325.357 35.4825 325.357 34.4442C325.357 33.4906 325.591 32.4734 326.06 31.3926C326.528 30.2907 327.124 29.3265 327.847 28.5C328.464 27.7795 329.156 27.1861 329.922 26.7199C330.688 26.2537 331.411 26.0206 332.092 26.0206C332.56 26.0206 332.965 26.1478 333.305 26.4021C333.667 26.6775 333.848 27.0696 333.848 27.5782C333.848 28.108 333.646 28.6907 333.241 29.3265C332.837 29.9622 332.262 30.5556 331.518 31.1065C331.198 31.3396 330.794 31.5621 330.305 31.7741C329.815 31.986 329.326 32.1661 328.837 32.3144C328.347 32.4416 327.943 32.5052 327.624 32.5052C327.517 32.7595 327.411 33.0985 327.304 33.5223C327.219 33.9462 327.177 34.3806 327.177 34.8256C327.177 35.3554 327.283 35.8322 327.496 36.256C327.709 36.6798 328.102 36.8918 328.677 36.8918C329.379 36.8918 330.018 36.6904 330.592 36.2878C331.167 35.8852 331.677 35.3872 332.124 34.7938C332.571 34.1793 332.943 33.5647 333.241 32.9502C333.56 32.3356 333.816 31.8164 334.007 31.3926C334.135 31.0959 334.305 30.9476 334.518 30.9476C334.624 30.9476 334.678 31.0006 334.678 31.1065C334.678 31.1913 334.646 31.2973 334.582 31.4244C334.284 32.0601 333.965 32.7383 333.624 33.4588C333.284 34.1581 332.88 34.8256 332.411 35.4613C331.943 36.0759 331.379 36.5739 330.72 36.9553C330.081 37.3368 329.315 37.5275 328.422 37.5275ZM327.847 31.933C328.145 31.933 328.645 31.827 329.347 31.6151C330.049 31.382 330.688 31.0218 331.262 30.5344C331.816 30.047 332.241 29.5172 332.539 28.945C332.837 28.3517 332.986 27.8537 332.986 27.451C332.986 26.9848 332.816 26.7517 332.475 26.7517C332.22 26.7517 331.869 26.9213 331.422 27.2603C330.975 27.5994 330.422 28.1715 329.762 28.9768C329.358 29.4854 328.975 30.0364 328.613 30.6297C328.251 31.2231 327.996 31.6575 327.847 31.933Z" fill="white"/>
<path d="M341.127 37.4003C340.552 37.4003 340.073 37.1143 339.69 36.5421C339.584 36.3726 339.488 36.1501 339.403 35.8746C339.318 35.5991 339.275 35.2918 339.275 34.9528C339.275 34.762 339.286 34.5713 339.307 34.3806C339.329 34.1687 339.371 33.9568 339.435 33.7448C339.137 34.2111 338.786 34.7302 338.382 35.3024C337.999 35.8534 337.552 36.3408 337.041 36.7646C336.552 37.1672 335.998 37.3686 335.381 37.3686C335.169 37.3686 334.945 37.3368 334.711 37.2732C334.137 37.1037 333.722 36.807 333.466 36.3832C333.232 35.9593 333.115 35.4507 333.115 34.8574C333.115 34.2005 333.243 33.48 333.498 32.6959C333.775 31.9118 334.115 31.1489 334.52 30.4072C334.945 29.6655 335.381 29.0298 335.828 28.5C336.467 27.7583 337.201 27.1649 338.031 26.7199C338.86 26.2749 339.701 26.0524 340.552 26.0524C341.318 26.0524 342.042 26.2537 342.723 26.6564C343.042 26.063 343.382 25.4061 343.744 24.6856C344.106 23.9439 344.467 23.2128 344.829 22.4923C345.191 21.7718 345.51 21.1148 345.787 20.5215C346.063 19.9069 346.276 19.4407 346.425 19.1229C346.744 18.3812 347.042 17.915 347.319 17.7242C347.617 17.5123 347.968 17.4064 348.372 17.4064C348.606 17.4064 348.862 17.4381 349.138 17.5017C349.436 17.5441 349.723 17.5547 350 17.5335C349.872 17.6607 349.606 18.0315 349.202 18.646C348.819 19.2394 348.362 20.0023 347.83 20.9347C347.298 21.8671 346.723 22.8949 346.106 24.018C345.51 25.12 344.914 26.2431 344.319 27.3875C343.744 28.5106 343.201 29.5808 342.691 30.5979C342.201 31.5939 341.808 32.4522 341.51 33.1727C341.425 33.3422 341.297 33.6919 341.127 34.2217C340.978 34.7302 340.903 35.1753 340.903 35.5567C340.903 35.8322 340.967 36.0759 341.095 36.2878C341.222 36.4785 341.435 36.5739 341.733 36.5739C342.137 36.5739 342.542 36.3726 342.946 35.9699C343.372 35.5461 343.776 35.0375 344.159 34.4442C344.542 33.8296 344.882 33.2363 345.18 32.6641C345.478 32.0707 345.702 31.6045 345.851 31.2655C345.957 31.0324 346.085 30.9158 346.234 30.9158C346.361 30.9158 346.425 31.0112 346.425 31.2019C346.425 31.2231 346.425 31.2655 346.425 31.329C346.425 31.3714 346.404 31.4244 346.361 31.488C346.17 31.933 345.904 32.484 345.563 33.1409C345.244 33.7978 344.861 34.4548 344.414 35.1117C343.967 35.7686 343.467 36.3196 342.914 36.7646C342.361 37.1884 341.765 37.4003 341.127 37.4003ZM335.605 36.4467C335.903 36.4467 336.275 36.2878 336.722 35.9699C337.169 35.6309 337.648 35.1011 338.158 34.3806C338.754 33.5329 339.435 32.4734 340.201 31.2019C340.967 29.9304 341.722 28.5848 342.467 27.1649C342.191 26.9107 341.871 26.7835 341.51 26.7835C340.914 26.7835 340.244 27.059 339.499 27.61C338.775 28.1609 338.062 28.8603 337.36 29.7079C336.679 30.5556 336.105 31.4138 335.637 32.2826C335.317 32.876 335.083 33.4164 334.934 33.9038C334.807 34.3912 334.743 34.815 334.743 35.1753C334.743 36.0229 335.03 36.4467 335.605 36.4467Z" fill="white"/>
</g>
<defs>
<filter id="filter0_d_377_74" x="31" y="10" width="323" height="45" filterUnits="userSpaceOnUse" color-interpolation-filters="sRGB">
<feFlood flood-opacity="0" result="BackgroundImageFix"/>
<feColorMatrix in="SourceAlpha" type="matrix" values="0 0 0 0 0 0 0 0 0 0 0 0 0 0 0 0 0 0 127 0" result="hardAlpha"/>
<feOffset dy="4"/>
<feGaussianBlur stdDeviation="2"/>
<feComposite in2="hardAlpha" operator="out"/>
<feColorMatrix type="matrix" values="0 0 0 0 0 0 0 0 0 0 0 0 0 0 0 0 0 0 0.25 0"/>
<feBlend mode="normal" in2="BackgroundImageFix" result="effect1_dropShadow_377_74"/>
<feBlend mode="normal" in="SourceGraphic" in2="effect1_dropShadow_377_74" result="shape"/>
</filter>
</defs>
</svg>
